<svg width="22" height="22" viewBox="0 0 22 22" fill="none" xmlns="http://www.w3.org/2000/svg">
<path d="M10.95 21.9C10.6667 21.9 10.4293 21.8043 10.238 21.613C10.046 21.421 9.95 21.1833 9.95 20.9V19.9C7.86667 19.6667 6.07933 18.8043 4.588 17.313C3.096 15.821 2.23333 14.0333 2 11.95H1C0.716667 11.95 0.479 11.854 0.287 11.662C0.0956667 11.4707 0 11.2333 0 10.95C0 10.6667 0.0956667 10.429 0.287 10.237C0.479 10.0457 0.716667 9.95 1 9.95H2C2.23333 7.86667 3.096 6.079 4.588 4.587C6.07933 3.09567 7.86667 2.23333 9.95 2V1C9.95 0.716667 10.046 0.479 10.238 0.287C10.4293 0.0956667 10.6667 0 10.95 0C11.2333 0 11.471 0.0956667 11.663 0.287C11.8543 0.479 11.95 0.716667 11.95 1V2C14.0333 2.23333 15.821 3.09567 17.313 4.587C18.8043 6.079 19.6667 7.86667 19.9 9.95H20.9C21.1833 9.95 21.421 10.0457 21.613 10.237C21.8043 10.429 21.9 10.6667 21.9 10.95C21.9 11.2333 21.8043 11.4707 21.613 11.662C21.421 11.854 21.1833 11.95 20.9 11.95H19.9C19.6667 14.0333 18.8043 15.821 17.313 17.313C15.821 18.8043 14.0333 19.6667 11.95 19.9V20.9C11.95 21.1833 11.8543 21.421 11.663 21.613C11.471 21.8043 11.2333 21.9 10.95 21.9ZM10.95 17.95C12.8833 17.95 14.5333 17.2667 15.9 15.9C17.2667 14.5333 17.95 12.8833 17.95 10.95C17.95 9.01667 17.2667 7.36667 15.9 6C14.5333 4.63333 12.8833 3.95 10.95 3.95C9.01667 3.95 7.36667 4.63333 6 6C4.63333 7.36667 3.95 9.01667 3.95 10.95C3.95 12.8833 4.63333 14.5333 6 15.9C7.36667 17.2667 9.01667 17.95 10.95 17.95ZM10.95 14.95C9.85 14.95 8.90833 14.5583 8.125 13.775C7.34167 12.9917 6.95 12.05 6.95 10.95C6.95 9.85 7.34167 8.90833 8.125 8.125C8.90833 7.34167 9.85 6.95 10.95 6.95C12.05 6.95 12.9917 7.34167 13.775 8.125C14.5583 8.90833 14.95 9.85 14.95 10.95C14.95 12.05 14.5583 12.9917 13.775 13.775C12.9917 14.5583 12.05 14.95 10.95 14.95Z" fill="#41479B"/>
</svg>
