<svg width="20" height="20" viewBox="0 0 20 20" fill="none" xmlns="http://www.w3.org/2000/svg">
<path d="M16.6623 8.33092C16.6623 12.4907 12.0476 16.8228 10.4981 18.1608C10.3537 18.2694 10.178 18.3281 9.99735 18.3281C9.81674 18.3281 9.64101 18.2694 9.49665 18.1608C7.94706 16.8228 3.33245 12.4907 3.33245 8.33092C3.33245 6.56328 4.03464 4.86803 5.28456 3.61812C6.53447 2.36821 8.22971 1.66602 9.99735 1.66602C11.765 1.66602 13.4602 2.36821 14.7102 3.61812C15.9601 4.86803 16.6623 6.56328 16.6623 8.33092Z" stroke="#99A1AF" stroke-width="1.66623" stroke-linecap="round" stroke-linejoin="round"/>
<path d="M9.99735 10.8307C11.3777 10.8307 12.4967 9.71172 12.4967 8.33137C12.4967 6.95102 11.3777 5.83203 9.99735 5.83203C8.61701 5.83203 7.49802 6.95102 7.49802 8.33137C7.49802 9.71172 8.61701 10.8307 9.99735 10.8307Z" stroke="#99A1AF" stroke-width="1.66623" stroke-linecap="round" stroke-linejoin="round"/>
</svg>
